HIERARCHY
ROOT Hips
{
	OFFSET -0.001795 -0.223333 0.028219
	CHANNELS 6 Xposition Yposition Zposition Zrotation Yrotation Xrotation 
	JOINT LeftUpLeg
	{
		OFFSET 0.069520 -0.091406 -0.006815
		CHANNELS 3 Zrotation Yrotation Xrotation
		JOINT LeftLeg
		{
			OFFSET 0.034277 -0.375199 -0.004496
			CHANNELS 3 Zrotation Yrotation Xrotation
			JOINT LeftFoot
			{
				OFFSET -0.013596 -0.397961 -0.043693
				CHANNELS 3 Zrotation Yrotation Xrotation
				JOINT LeftToe
				{
					OFFSET 0.026358 -0.055791 0.119288
					CHANNELS 3 Zrotation Yrotation Xrotation
					End Site
					{
						OFFSET 0.000000 0.000000 0.000000
					}
				}
			}
		}
	}
	JOINT RightUpLeg
	{
		OFFSET -0.067670 -0.090522 -0.004320
		CHANNELS 3 Zrotation Yrotation Xrotation
		JOINT RightLeg
		{
			OFFSET -0.038290 -0.382569 -0.008850
			CHANNELS 3 Zrotation Yrotation Xrotation
			JOINT RightFoot
			{
				OFFSET 0.015774 -0.398415 -0.042312
				CHANNELS 3 Zrotation Yrotation Xrotation
				JOINT RightToe
				{
					OFFSET -0.025372 -0.048144 0.123348
					CHANNELS 3 Zrotation Yrotation Xrotation
					End Site
					{
						OFFSET 0.000000 0.000000 0.000000
					}
				}
			}
		}
	}
	JOINT Spine
	{
		OFFSET -0.002533 0.108963 -0.026696
		CHANNELS 3 Zrotation Yrotation Xrotation
		JOINT Spine1
		{
			OFFSET 0.005487 0.135180 0.001092
			CHANNELS 3 Zrotation Yrotation Xrotation
			JOINT Spine2
			{
				OFFSET 0.001457 0.052922 0.025425
				CHANNELS 3 Zrotation Yrotation Xrotation
				JOINT Neck
				{
					OFFSET -0.002778 0.213870 -0.042857
					CHANNELS 3 Zrotation Yrotation Xrotation
					JOINT Head
					{
						OFFSET 0.005152 0.064970 0.051349
						CHANNELS 3 Zrotation Yrotation Xrotation
						End Site
						{
							OFFSET 0.000000 0.000000 0.000000
						}
					}
				}
				JOINT LeftShoulder
				{
					OFFSET 0.078845 0.121749 -0.034090
					CHANNELS 3 Zrotation Yrotation Xrotation
					JOINT LeftArm
					{
						OFFSET 0.090977 0.030469 -0.008868
						CHANNELS 3 Zrotation Yrotation Xrotation
						JOINT LeftForeArm
						{
							OFFSET 0.259612 -0.012772 -0.027456
							CHANNELS 3 Zrotation Yrotation Xrotation
							JOINT LeftHand
							{
								OFFSET 0.249234 0.008986 -0.001171
								CHANNELS 3 Zrotation Yrotation Xrotation
								End Site
								{
									OFFSET 0.000000 0.000000 0.000000
								}
							}
						}
					}
				}
				JOINT RightShoulder
				{
					OFFSET -0.081759 0.118833 -0.038615
					CHANNELS 3 Zrotation Yrotation Xrotation
					JOINT RightArm
					{
						OFFSET -0.096012 0.032551 -0.009143
						CHANNELS 3 Zrotation Yrotation Xrotation
						JOINT RightForeArm
						{
							OFFSET -0.253742 -0.013329 -0.021401
							CHANNELS 3 Zrotation Yrotation Xrotation
							JOINT RightHand
							{
								OFFSET -0.255298 0.007772 -0.005559
								CHANNELS 3 Zrotation Yrotation Xrotation
								End Site
								{
									OFFSET 0.000000 0.000000 0.000000
								}
							}
						}
					}
				}
			}
		}
	}
}
MOTION
Frames: 8
Frame Time: 0.050000
-0.177680 0.961598 0.026551 2.442690 39.958402 2.177579 0.629773 -0.220710 -2.687804 5.233747 -0.460805 1.682119 -2.242985 3.590646 9.165219 0.000000 0.000000 0.000000 -1.897131 -0.531068 3.006622 1.202499 -0.305656 -1.020613 -19.603729 -26.773092 39.881973 0.000000 0.000000 0.000000 4.283459 -0.287287 2.802398 -6.151670 2.215072 -26.315511 3.029714 22.411703 27.893107 12.708399 2.410054 -27.772085 0.000000 0.000000 0.000000 7.391203 -20.212544 6.858334 6.135628 -43.273218 -11.895475 93.158656 -30.515044 -49.847932 0.000000 0.000000 0.000000 14.057577 12.556958 15.375440 21.796927 68.127100 12.102127 -53.676165 24.585013 -6.612169 0.000000 0.000000 0.000000 
-0.179910 0.961525 0.029495 3.200279 42.450066 2.835035 0.027105 -0.206705 -2.975124 5.990872 -0.471555 1.248533 -3.663733 1.772984 9.389226 0.000000 0.000000 0.000000 -2.468885 -0.679199 3.703539 2.216353 -0.524072 -1.931669 -20.937541 -27.801518 41.160756 0.000000 0.000000 0.000000 4.044657 -0.304591 3.142241 -6.176390 2.052502 -27.476205 3.794360 23.859474 28.821379 13.313620 2.754569 -28.539342 0.000000 0.000000 0.000000 9.133488 -20.518893 7.563179 9.601851 -45.619899 -15.484603 89.796283 -30.940074 -48.753857 0.000000 0.000000 0.000000 12.603488 13.141485 15.534391 13.248175 70.222846 8.102376 -55.878010 19.851764 -4.955376 0.000000 0.000000 0.000000 
-0.180424 0.961420 0.031614 4.211012 44.606901 3.685066 -0.794271 -0.172011 -3.114235 6.585930 -0.458868 0.725584 -4.930533 0.197435 9.653800 0.000000 0.000000 0.000000 -2.992412 -0.817378 4.285349 2.606367 -0.623512 -2.638638 -22.180789 -28.723972 42.370100 0.000000 0.000000 0.000000 3.958859 -0.276071 2.782042 -6.180818 2.065634 -27.271652 4.258779 24.673146 29.094010 13.315448 3.260119 -29.210342 0.000000 0.000000 0.000000 11.446776 -20.483934 8.532430 13.164717 -47.433955 -19.267014 85.149584 -30.647610 -46.080469 0.000000 0.000000 0.000000 10.749552 14.417344 15.627006 6.901949 70.144014 4.856039 -57.084604 16.357259 -3.538402 0.000000 0.000000 0.000000 
-0.179836 0.961647 0.033247 4.986665 46.988808 4.452428 -1.246390 -0.143951 -3.104591 6.853825 -0.385506 -0.149475 -6.341781 -1.499815 10.032766 0.000000 0.000000 0.000000 -3.258213 -0.979917 5.086068 2.937371 -0.717086 -3.750664 -23.438827 -29.517331 43.974774 0.000000 0.000000 0.000000 3.989569 -0.271414 2.623963 -6.255082 2.003407 -27.615733 4.556482 24.891612 29.338074 13.152076 3.694692 -29.475461 0.000000 0.000000 0.000000 13.328904 -20.486635 9.372744 17.017156 -48.668167 -23.105946 80.789565 -30.123274 -43.112902 0.000000 0.000000 0.000000 9.724827 14.755433 15.614938 3.458441 69.314306 3.105582 -59.532814 14.370375 -2.559865 0.000000 0.000000 0.000000 
-0.178576 0.961411 0.034582 6.076290 49.279354 5.543232 -1.832864 -0.121722 -3.252076 6.953068 -0.324430 -0.800154 -7.671809 -3.142360 10.359930 0.000000 0.000000 0.000000 -3.547367 -1.130577 5.717602 2.946460 -0.752628 -4.664487 -24.800710 -30.418226 45.510361 0.000000 0.000000 0.000000 3.848314 -0.264644 2.557213 -6.143527 1.974395 -27.604727 4.797521 24.519753 29.454734 12.292783 4.352659 -29.554532 0.000000 0.000000 0.000000 14.226876 -20.380821 9.767012 20.227384 -48.998907 -25.704203 77.680527 -29.047689 -40.207683 0.000000 0.000000 0.000000 9.336790 15.047543 15.836194 0.273085 68.183142 1.229939 -61.026866 14.015275 -2.405712 0.000000 0.000000 0.000000 
-0.176978 0.961515 0.035794 7.109675 51.352075 6.526523 -2.290997 -0.096412 -3.273549 6.927597 -0.266989 -1.389735 -8.918646 -4.587199 10.769820 0.000000 0.000000 0.000000 -3.883668 -1.275705 6.217276 3.127237 -0.821570 -5.179386 -25.979823 -31.075812 47.025478 0.000000 0.000000 0.000000 3.501466 -0.237161 2.415026 -5.868681 1.918994 -27.716804 4.969124 24.131958 29.529659 11.796632 4.737873 -29.343821 0.000000 0.000000 0.000000 15.098322 -20.711609 10.216407 22.590075 -48.888502 -27.658293 75.628897 -27.971174 -38.276838 0.000000 0.000000 0.000000 9.570364 14.515879 16.000739 1.092640 67.543279 1.715244 -63.177403 15.396348 -3.001846 0.000000 0.000000 0.000000 
-0.175176 0.961536 0.036745 8.017969 52.699951 7.288143 -2.667679 -0.054084 -3.027113 6.797957 -0.214183 -1.986275 -9.767830 -5.521593 11.105282 0.000000 0.000000 0.000000 -4.252190 -1.450094 6.962768 3.259934 -0.880304 -6.006828 -26.634108 -31.453044 47.944816 0.000000 0.000000 0.000000 3.387493 -0.213942 2.101467 -5.774380 1.997659 -27.131651 5.158664 23.791153 29.322731 11.006630 5.168216 -29.101736 0.000000 0.000000 0.000000 15.092221 -20.739286 10.225740 23.961010 -48.904541 -28.667009 75.329159 -27.544620 -37.593942 0.000000 0.000000 0.000000 10.193193 14.636559 16.669282 2.006721 66.193128 1.873819 -64.976499 16.384398 -3.503154 0.000000 0.000000 0.000000 
-0.173558 0.961658 0.037350 8.905276 53.354986 7.994496 -3.251292 -0.006872 -2.781753 6.911874 -0.195138 -2.372635 -10.254654 -5.971224 11.364556 0.000000 0.000000 0.000000 -4.922129 -1.594762 7.400873 3.654121 -0.977716 -6.383079 -26.872632 -31.559848 48.314798 0.000000 0.000000 0.000000 3.269910 -0.194512 1.833641 -5.415089 2.005556 -26.838670 5.214337 24.154702 29.342690 10.595805 5.458806 -29.076803 0.000000 0.000000 0.000000 15.730695 -21.223809 10.590249 24.622040 -48.093575 -28.886951 75.051876 -26.590984 -37.202065 0.000000 0.000000 0.000000 10.895767 14.135242 17.137550 3.676076 65.500312 2.550904 -65.603797 17.365927 -3.936425 0.000000 0.000000 0.000000 
